<svg xmlns="http://www.w3.org/2000/svg" width="32" height="32" viewBox="0 0 32 32" fill="none">
  <rect width="32" height="32" rx="16" fill="url(#gradient)"/>
  <path d="M9 10.5C9 9.67157 9.67157 9 10.5 9H21.5C22.3284 9 23 9.67157 23 10.5V10.5C23 11.3284 22.3284 12 21.5 12H10.5C9.67157 12 9 11.3284 9 10.5V10.5Z" fill="white"/>
  <path d="M9 16C9 15.1716 9.67157 14.5 10.5 14.5H21.5C22.3284 14.5 23 15.1716 23 16V16C23 16.8284 22.3284 17.5 21.5 17.5H10.5C9.67157 17.5 9 16.8284 9 16V16Z" fill="white"/>
  <path d="M9 21.5C9 20.6716 9.67157 20 10.5 20H17.5C18.3284 20 19 20.6716 19 21.5V21.5C19 22.3284 18.3284 23 17.5 23H10.5C9.67157 23 9 22.3284 9 21.5V21.5Z" fill="white"/>
  <defs>
    <linearGradient id="gradient" x1="0" y1="0" x2="32" y2="32" gradientUnits="userSpaceOnUse">
      <stop stop-color="#3B82F6"/>
      <stop offset="1" stop-color="#2563EB"/>
    </linearGradient>
  </defs>
</svg>
