<?xml version="1.0" encoding="UTF-8"?>
<svg xmlns="http://www.w3.org/2000/svg" viewBox="0 0 200 200">
  <!-- Define gradients -->
  <defs>
    <linearGradient id="blueGradient" x1="0%" y1="0%" x2="100%" y2="100%">
      <stop offset="0%" style="stop-color:#2563EB" />
      <stop offset="100%" style="stop-color:#7C3AED" />
    </linearGradient>
  </defs>
  
  <!-- Main rounded square with AI text -->
  <rect x="50" y="50" width="100" height="100" rx="15" ry="15" fill="url(#blueGradient)" />
  
  <!-- AI Text -->
  <text x="100" y="115" font-family="Arial, sans-serif" font-size="50" font-weight="bold" text-anchor="middle" fill="white">AI</text>
  
  <!-- Circuit board connections - Top -->
  <line x1="100" y1="50" x2="100" y2="30" stroke="#2563EB" stroke-width="3" />
  <line x1="100" y1="30" x2="120" y2="10" stroke="#2563EB" stroke-width="3" />
  <line x1="100" y1="30" x2="80" y2="10" stroke="#2563EB" stroke-width="3" />
  <line x1="80" y1="10" x2="60" y2="15" stroke="#2563EB" stroke-width="2" />
  <line x1="120" y1="10" x2="140" y2="15" stroke="#2563EB" stroke-width="2" />
  <circle cx="100" cy="30" r="4" fill="#2563EB" />
  <circle cx="120" cy="10" r="5" fill="#2563EB" />
  <circle cx="80" cy="10" r="5" fill="#2563EB" />
  <circle cx="60" cy="15" r="3" fill="#2563EB" />
  <circle cx="140" cy="15" r="3" fill="#2563EB" />
  
  <!-- Circuit board connections - Right -->
  <line x1="150" y1="100" x2="170" y2="100" stroke="#2563EB" stroke-width="3" />
  <line x1="170" y1="100" x2="190" y2="80" stroke="#2563EB" stroke-width="3" />
  <line x1="170" y1="100" x2="190" y2="120" stroke="#2563EB" stroke-width="3" />
  <line x1="190" y1="80" x2="185" y2="60" stroke="#2563EB" stroke-width="2" />
  <line x1="190" y1="120" x2="185" y2="140" stroke="#2563EB" stroke-width="2" />
  <circle cx="170" cy="100" r="4" fill="#2563EB" />
  <circle cx="190" cy="80" r="5" fill="#2563EB" />
  <circle cx="190" cy="120" r="5" fill="#2563EB" />
  <circle cx="185" cy="60" r="3" fill="#2563EB" />
  <circle cx="185" cy="140" r="3" fill="#2563EB" />
  
  <!-- Circuit board connections - Bottom -->
  <line x1="100" y1="150" x2="100" y2="170" stroke="#2563EB" stroke-width="3" />
  <line x1="100" y1="170" x2="80" y2="190" stroke="#2563EB" stroke-width="3" />
  <line x1="100" y1="170" x2="120" y2="190" stroke="#2563EB" stroke-width="3" />
  <line x1="80" y1="190" x2="60" y2="185" stroke="#2563EB" stroke-width="2" />
  <line x1="120" y1="190" x2="140" y2="185" stroke="#2563EB" stroke-width="2" />
  <circle cx="100" cy="170" r="4" fill="#2563EB" />
  <circle cx="80" cy="190" r="5" fill="#2563EB" />
  <circle cx="120" cy="190" r="5" fill="#2563EB" />
  <circle cx="60" cy="185" r="3" fill="#2563EB" />
  <circle cx="140" cy="185" r="3" fill="#2563EB" />
  
  <!-- Circuit board connections - Left -->
  <line x1="50" y1="100" x2="30" y2="100" stroke="#2563EB" stroke-width="3" />
  <line x1="30" y1="100" x2="10" y2="80" stroke="#2563EB" stroke-width="3" />
  <line x1="30" y1="100" x2="10" y2="120" stroke="#2563EB" stroke-width="3" />
  <line x1="10" y1="80" x2="15" y2="60" stroke="#2563EB" stroke-width="2" />
  <line x1="10" y1="120" x2="15" y2="140" stroke="#2563EB" stroke-width="2" />
  <circle cx="30" cy="100" r="4" fill="#2563EB" />
  <circle cx="10" cy="80" r="5" fill="#2563EB" />
  <circle cx="10" cy="120" r="5" fill="#2563EB" />
  <circle cx="15" cy="60" r="3" fill="#2563EB" />
  <circle cx="15" cy="140" r="3" fill="#2563EB" />
  
  <!-- Additional connection points on the square corners with extended paths -->
  <circle cx="65" cy="65" r="3" fill="#2563EB" />
  <circle cx="135" cy="65" r="3" fill="#2563EB" />
  <circle cx="65" cy="135" r="3" fill="#2563EB" />
  <circle cx="135" cy="135" r="3" fill="#2563EB" />
  
  <!-- Additional circuit elements from top-left corner -->
  <line x1="65" y1="65" x2="45" y2="45" stroke="#2563EB" stroke-width="2" />
  <line x1="45" y1="45" x2="25" y2="45" stroke="#2563EB" stroke-width="2" />
  <line x1="45" y1="45" x2="45" y2="25" stroke="#2563EB" stroke-width="2" />
  <circle cx="45" cy="45" r="4" fill="#2563EB" />
  <circle cx="25" cy="45" r="3" fill="#2563EB" />
  <circle cx="45" cy="25" r="3" fill="#2563EB" />
  
  <!-- Additional circuit elements from top-right corner -->
  <line x1="135" y1="65" x2="155" y2="45" stroke="#2563EB" stroke-width="2" />
  <line x1="155" y1="45" x2="175" y2="45" stroke="#2563EB" stroke-width="2" />
  <line x1="155" y1="45" x2="155" y2="25" stroke="#2563EB" stroke-width="2" />
  <circle cx="155" cy="45" r="4" fill="#2563EB" />
  <circle cx="175" cy="45" r="3" fill="#2563EB" />
  <circle cx="155" cy="25" r="3" fill="#2563EB" />
  
  <!-- Additional circuit elements from bottom-left corner -->
  <line x1="65" y1="135" x2="45" y2="155" stroke="#2563EB" stroke-width="2" />
  <line x1="45" y1="155" x2="25" y2="155" stroke="#2563EB" stroke-width="2" />
  <line x1="45" y1="155" x2="45" y2="175" stroke="#2563EB" stroke-width="2" />
  <circle cx="45" cy="155" r="4" fill="#2563EB" />
  <circle cx="25" cy="155" r="3" fill="#2563EB" />
  <circle cx="45" cy="175" r="3" fill="#2563EB" />
  
  <!-- Additional circuit elements from bottom-right corner -->
  <line x1="135" y1="135" x2="155" y2="155" stroke="#2563EB" stroke-width="2" />
  <line x1="155" y1="155" x2="175" y2="155" stroke="#2563EB" stroke-width="2" />
  <line x1="155" y1="155" x2="155" y2="175" stroke="#2563EB" stroke-width="2" />
  <circle cx="155" cy="155" r="4" fill="#2563EB" />
  <circle cx="175" cy="155" r="3" fill="#2563EB" />
  <circle cx="155" cy="175" r="3" fill="#2563EB" />
  
  <!-- Additional horizontal connection from the sides of the square -->
  <line x1="75" y1="50" x2="75" y2="35" stroke="#2563EB" stroke-width="2" />
  <line x1="125" y1="50" x2="125" y2="35" stroke="#2563EB" stroke-width="2" />
  <circle cx="75" cy="35" r="3" fill="#2563EB" />
  <circle cx="125" cy="35" r="3" fill="#2563EB" />
  
  <line x1="50" y1="75" x2="35" y2="75" stroke="#2563EB" stroke-width="2" />
  <line x1="150" y1="75" x2="165" y2="75" stroke="#2563EB" stroke-width="2" />
  <circle cx="35" cy="75" r="3" fill="#2563EB" />
  <circle cx="165" cy="75" r="3" fill="#2563EB" />
  
  <line x1="75" y1="150" x2="75" y2="165" stroke="#2563EB" stroke-width="2" />
  <line x1="125" y1="150" x2="125" y2="165" stroke="#2563EB" stroke-width="2" />
  <circle cx="75" cy="165" r="3" fill="#2563EB" />
  <circle cx="125" cy="165" r="3" fill="#2563EB" />
  
  <line x1="50" y1="125" x2="35" y2="125" stroke="#2563EB" stroke-width="2" />
  <line x1="150" y1="125" x2="165" y2="125" stroke="#2563EB" stroke-width="2" />
  <circle cx="35" cy="125" r="3" fill="#2563EB" />
  <circle cx="165" cy="125" r="3" fill="#2563EB" />
</svg>