<svg data-hk="s6010" xmlns="http://www.w3.org/2000/svg" viewBox="0 0 300 300" width="70" height="70" class="transition-transform duration-300 group-hover:scale-110" aria-label="Boston AI Partners logo">
	<line x1="50" y1="150" x2="110" y2="150" stroke="#2563EB" stroke-width="4"/>
	<line x1="190" y1="150" x2="250" y2="150" stroke="#2563EB" stroke-width="4"/>
	<line x1="150" y1="50" x2="150" y2="110" stroke="#2563EB" stroke-width="4"/>
	<line x1="150" y1="190" x2="150" y2="250" stroke="#2563EB" stroke-width="4"/>
	<line x1="177" y1="123" x2="219" y2="81" stroke="#2563EB" stroke-width="4"/>
	<line x1="177" y1="81" x2="219" y2="123" stroke="#2563EB" stroke-width="4"/>
	<line x1="177" y1="177" x2="219" y2="219" stroke="#2563EB" stroke-width="4"/>
	<line x1="177" y1="219" x2="219" y2="177" stroke="#2563EB" stroke-width="4"/>
	<line x1="123" y1="177" x2="81" y2="219" stroke="#2563EB" stroke-width="4"/>
	<line x1="123" y1="219" x2="81" y2="177" stroke="#2563EB" stroke-width="4"/>
	<line x1="123" y1="123" x2="81" y2="81" stroke="#2563EB" stroke-width="4"/>
	<line x1="123" y1="81" x2="81" y2="123" stroke="#2563EB" stroke-width="4"/>
	<circle cx="50" cy="150" r="6" fill="#2563EB"/>
	<circle cx="250" cy="150" r="6" fill="#2563EB"/>
	<circle cx="150" cy="50" r="6" fill="#2563EB"/>
	<circle cx="150" cy="250" r="6" fill="#2563EB"/>
	<circle cx="219" cy="81" r="6" fill="#2563EB"/>
	<circle cx="177" cy="81" r="6" fill="#2563EB"/>
	<circle cx="219" cy="123" r="6" fill="#2563EB"/>
	<circle cx="219" cy="177" r="6" fill="#2563EB"/>
	<circle cx="219" cy="219" r="6" fill="#2563EB"/>
	<circle cx="177" cy="219" r="6" fill="#2563EB"/>
	<circle cx="81" cy="219" r="6" fill="#2563EB"/>
	<circle cx="123" cy="219" r="6" fill="#2563EB"/>
	<circle cx="81" cy="177" r="6" fill="#2563EB"/>
	<circle cx="81" cy="123" r="6" fill="#2563EB"/>
	<circle cx="81" cy="81" r="6" fill="#2563EB"/>
	<circle cx="123" cy="81" r="6" fill="#2563EB"/>
	<rect x="110" y="110" width="80" height="80" fill="#2563EB" rx="2" ry="2"/>
	<text x="140" y="162" font-family="Arial, sans-serif" font-weight="bold" font-size="42" text-anchor="middle" fill="white">A</text>
	<text x="165" y="162" font-family="Arial, sans-serif" font-weight="bold" font-size="42" text-anchor="middle" fill="#f87171">i</text>
</svg>
